<svg width="115" height="48" viewBox="0 0 115 48" fill="none" xmlns="http://www.w3.org/2000/svg"><g clip-path="url(#clip0_528_1786)"><path d="M38.536 35.8935C36.6403 34.0459 35.6924 31.4523 35.6924 28.1127C35.6924 25.9897 36.1269 24.1233 36.9985 22.5137C37.8689 20.9041 39.1028 19.6634 40.7018 18.7931C42.2994 17.9228 44.1604 17.4869 46.2834 17.4869C52.0789 17.4869 55.4064 20.2904 56.2647 25.8947H50.8984C50.7072 24.5832 50.2419 23.5993 49.5026 22.9429C48.7633 22.2864 47.7139 21.9589 46.3542 21.9589C44.7325 21.9589 43.4384 22.5084 42.4732 23.6046C41.5066 24.7022 41.024 26.2049 41.024 28.1127C41.024 29.9964 41.5012 31.4817 42.4545 32.5673C43.4077 33.6528 44.7312 34.1956 46.4251 34.1956C47.8074 34.1956 48.8997 33.8493 49.6992 33.1582C50.4973 32.467 50.9813 31.4656 51.1484 30.1528H56.5147C56.3957 31.7985 55.9425 33.2651 55.1551 34.5539C54.3676 35.8413 53.2286 36.8494 51.7379 37.5766C50.2473 38.3039 48.4639 38.6676 46.389 38.6676C43.0494 38.6662 40.4331 37.7424 38.536 35.8935Z" fill="#E80537"></path><path d="M80.9561 38.1301H75.7688V31.7972C75.5777 34.1582 74.8798 35.8935 73.6766 37.0031C72.472 38.1127 70.8437 38.6676 68.7929 38.6676C66.9078 38.6676 65.2634 38.2505 63.8557 37.4149C62.4479 36.5807 61.357 35.3708 60.5816 33.7838C59.8062 32.1983 59.4185 30.2958 59.4185 28.0779C59.4185 25.8841 59.8302 23.9883 60.6524 22.3894C61.476 20.7918 62.5963 19.5752 64.0148 18.7396C65.4332 17.9054 67.0255 17.4869 68.7902 17.4869C70.7942 17.4869 72.4039 18.0418 73.6204 19.1501C74.837 20.2597 75.5523 21.983 75.7675 24.3199V18.023H80.9561V38.1301ZM74.5349 32.5846C75.4774 31.4884 75.948 29.9964 75.948 28.1127C75.948 26.1808 75.4774 24.6661 74.5349 23.5685C73.5924 22.4723 72.2862 21.9228 70.6177 21.9228C68.853 21.9228 67.4279 22.4656 66.3423 23.5512C65.2567 24.6367 64.714 26.1448 64.714 28.0766C64.714 29.9844 65.2621 31.487 66.3597 32.5846C67.456 33.6822 68.8758 34.2304 70.6164 34.2304C72.2862 34.2304 73.5924 33.6822 74.5349 32.5846Z" fill="#E80537"></path><path d="M79.6686 47.5032V42.316C80.694 42.6261 81.7194 42.7812 82.7448 42.7812C84.0323 42.7812 84.9507 42.4951 85.5002 41.9229C86.0483 41.3507 86.3224 40.336 86.3224 38.8815V18.0244H91.5096V39.1315C91.5096 41.3253 91.2168 43.0673 90.6326 44.3548C90.0484 45.6422 89.1419 46.5673 87.9133 47.1275C86.6847 47.6877 85.0456 47.9684 82.9935 47.9684C81.6593 47.9684 80.551 47.8133 79.6686 47.5032Z" fill="#E80537"></path><path d="M114.462 18.0244V38.1301H109.274V31.2972H109.238C109.238 32.9911 108.952 34.3868 108.38 35.483C107.808 36.5806 107.062 37.3855 106.143 37.8975C105.225 38.4095 104.229 38.6676 103.157 38.6676C100.986 38.6676 99.3586 38.066 98.273 36.8614C97.1874 35.6568 96.6447 33.7785 96.6447 31.2263V18.0244H101.832V29.9015C101.832 31.332 102.123 32.3761 102.709 33.0312C103.293 33.6876 104.181 34.0151 105.375 34.0151C106.424 34.0151 107.336 33.6221 108.111 32.8346C108.887 32.0472 109.274 30.9737 109.274 29.6154V18.0244H114.462Z" fill="#E80537"></path><path d="M86.7692 13.8385C86.1609 13.2423 85.8574 12.527 85.8574 11.6915C85.8574 10.8332 86.1609 10.1059 86.7692 9.50963C87.3775 8.91336 88.0994 8.61523 88.9336 8.61523C89.7679 8.61523 90.4831 8.91336 91.0807 9.50963C91.677 10.1059 91.9751 10.8332 91.9751 11.6915C91.9751 12.5257 91.677 13.2423 91.0807 13.8385C90.4845 14.4348 89.7692 14.7329 88.9336 14.7329C88.0994 14.7329 87.3775 14.4348 86.7692 13.8385Z" fill="#59D359"></path></g><path d="M13.6849 45.5347C18.1271 45.6172 21.8274 44.1808 23.9366 40.6725C25.4617 38.1371 24.8601 35.186 25.6433 30.8986C26.444 26.509 28.3819 22.2659 27.0539 19.2508C26.4802 17.9475 25.7207 17.0766 24.793 16.3533C22.2381 14.3628 18.5626 14.5661 15.9922 15.632C12.9667 16.8857 11.3828 15.4039 9.74007 15.0975C8.33466 14.8364 7.20888 14.5238 4.98623 15.0851C4.05341 15.3204 1.94014 16.2821 0.711174 18.6698C-0.982131 21.9584 0.723556 24.5752 1.9422 30.2681C3.0721 35.5482 2.70166 39.0173 4.58792 41.5599C6.47419 44.1014 9.24271 45.4521 13.6849 45.5347Z" fill="#FF7500"></path><path d="M17.5158 10.866C17.5199 9.3089 16.2002 8.06239 14.575 8.08716C14.2365 8.09232 13.9187 7.97159 13.6824 7.7487C13.4461 7.52479 13.3161 7.22245 13.3171 6.89844C13.3181 6.5734 13.4492 6.26796 13.6865 6.03786C13.9249 5.80672 14.2427 5.67773 14.5811 5.67257C16.2063 5.64781 17.5323 4.35074 17.5364 2.7792C17.5406 1.2221 16.2208 -0.0244023 14.5956 0.000362719C12.7 0.0282233 10.8994 0.777364 9.52806 2.10848C8.17321 3.41999 7.4251 5.15354 7.41994 6.98615C7.41581 8.81876 8.15566 10.5296 9.50329 11.8029C10.8685 13.0938 12.665 13.7893 14.5605 13.7604C16.1867 13.7356 17.5127 12.4375 17.5158 10.866Z" fill="#59D359"></path><defs><clipPath id="clip0_528_1786"><rect width="78.7692" height="39.3846" fill="white" transform="translate(35.6924 8.61523)"></rect></clipPath></defs></svg>